<svg id="visual" viewBox="0 0 900 700" width="900" height="700" xmlns="http://www.w3.org/2000/svg" xmlns:xlink="http://www.w3.org/1999/xlink" version="1.1"><rect x="0" y="0" width="900" height="700" fill="#414833"></rect><defs><linearGradient id="grad1_0" x1="22.2%" y1="100%" x2="100%" y2="0%"><stop offset="24.285714285714285%" stop-color="#414833" stop-opacity="1"></stop><stop offset="75.71428571428572%" stop-color="#414833" stop-opacity="1"></stop></linearGradient></defs><defs><linearGradient id="grad2_0" x1="0%" y1="100%" x2="77.8%" y2="0%"><stop offset="24.285714285714285%" stop-color="#414833" stop-opacity="1"></stop><stop offset="75.71428571428572%" stop-color="#414833" stop-opacity="1"></stop></linearGradient></defs><g transform="translate(900, 700)"><path d="M-513.1 0C-509.5 -69.8 -505.9 -139.6 -474 -196.3C-442.1 -253.1 -381.9 -296.9 -326 -326C-270.1 -355.1 -218.5 -369.5 -164.9 -398.2C-111.3 -426.9 -55.7 -470 0 -513.1L0 0Z" fill="#333d29"></path></g><g transform="translate(0, 0)"><path d="M513.1 0C504 65.9 494.9 131.9 472.1 195.6C449.3 259.2 412.9 320.6 362.8 362.8C312.7 405 249.1 428.1 186.4 449.9C123.6 471.8 61.8 492.4 0 513.1L0 0Z" fill="#333d29"></path></g></svg>