<svg id="visual" viewBox="0 0 900 700" width="900" height="700" xmlns="http://www.w3.org/2000/svg" xmlns:xlink="http://www.w3.org/1999/xlink" version="1.1"><rect x="0" y="0" width="900" height="700" fill="#414833"></rect><defs><linearGradient id="grad1_0" x1="22.2%" y1="0%" x2="100%" y2="100%"><stop offset="24.285714285714285%" stop-color="#414833" stop-opacity="1"></stop><stop offset="75.71428571428572%" stop-color="#414833" stop-opacity="1"></stop></linearGradient></defs><defs><linearGradient id="grad2_0" x1="0%" y1="0%" x2="77.8%" y2="100%"><stop offset="24.285714285714285%" stop-color="#414833" stop-opacity="1"></stop><stop offset="75.71428571428572%" stop-color="#414833" stop-opacity="1"></stop></linearGradient></defs><g transform="translate(900, 0)"><path d="M0 513.1C-69.8 509.5 -139.6 505.9 -196.3 474C-253.1 442.1 -296.9 381.9 -326 326C-355.1 270.1 -369.5 218.5 -398.2 164.9C-426.9 111.3 -470 55.7 -513.1 0L0 0Z" fill="#333d29"></path></g><g transform="translate(0, 700)"><path d="M0 -513.1C65.9 -504 131.9 -494.9 195.6 -472.1C259.2 -449.3 320.6 -412.9 362.8 -362.8C405 -312.7 428.1 -249.1 449.9 -186.4C471.8 -123.6 492.4 -61.8 513.1 0L0 0Z" fill="#333d29"></path></g></svg>