<svg id="visual" viewBox="0 0 1500 900" width="1500" height="900" xmlns="http://www.w3.org/2000/svg" xmlns:xlink="http://www.w3.org/1999/xlink" version="1.1"><g fill="none" stroke="#333d29" stroke-width="4"><path d="M50.5 29.1L50.5 130.1L-50.5 130.1L-50.5 29.1L-137.9 -21.3L-87.4 -108.7L0 -58.3L87.4 -108.7L137.9 -21.3Z" transform="translate(224 731)"></path><path d="M22.1 12.8L22.1 57L-22.1 57L-22.1 12.8L-60.5 -9.4L-38.3 -47.7L0 -25.6L38.3 -47.7L60.5 -9.4Z" transform="translate(726 150)"></path><path d="M32.4 18.7L32.4 83.5L-32.4 83.5L-32.4 18.7L-88.5 -13.7L-56.1 -69.8L0 -37.4L56.1 -69.8L88.5 -13.7Z" transform="translate(1330 342)"></path><path d="M34.3 19.8L34.3 88.3L-34.3 88.3L-34.3 19.8L-93.6 -14.5L-59.4 -73.8L0 -39.6L59.4 -73.8L93.6 -14.5Z" transform="translate(1293 872)"></path></g></svg>