<svg id="visual" viewBox="0 0 900 900" width="900" height="900" xmlns="http://www.w3.org/2000/svg" xmlns:xlink="http://www.w3.org/1999/xlink" version="1.1"><path d="M568 900L538.8 878.5C509.7 857 451.3 814 438.2 771.2C425 728.3 457 685.7 469 642.8C481 600 473 557 461 514.2C449 471.3 433 428.7 425.7 385.8C418.3 343 419.7 300 438.8 257.2C458 214.3 495 171.7 496 128.8C497 86 462 43 444.5 21.5L427 0L900 0L900 21.5C900 43 900 86 900 128.8C900 171.7 900 214.3 900 257.2C900 300 900 343 900 385.8C900 428.7 900 471.3 900 514.2C900 557 900 600 900 642.8C900 685.7 900 728.3 900 771.2C900 814 900 857 900 878.5L900 900Z" fill="#57634a"></path><path d="M491 900L500.3 878.5C509.7 857 528.3 814 548.8 771.2C569.3 728.3 591.7 685.7 604.5 642.8C617.3 600 620.7 557 598.2 514.2C575.7 471.3 527.3 428.7 504.7 385.8C482 343 485 300 511 257.2C537 214.3 586 171.7 585.7 128.8C585.3 86 535.7 43 510.8 21.5L486 0L900 0L900 21.5C900 43 900 86 900 128.8C900 171.7 900 214.3 900 257.2C900 300 900 343 900 385.8C900 428.7 900 471.3 900 514.2C900 557 900 600 900 642.8C900 685.7 900 728.3 900 771.2C900 814 900 857 900 878.5L900 900Z" fill="#455039"></path><path d="M591 900L586.5 878.5C582 857 573 814 573.8 771.2C574.7 728.3 585.3 685.7 599.3 642.8C613.3 600 630.7 557 649.8 514.2C669 471.3 690 428.7 693 385.8C696 343 681 300 681.5 257.2C682 214.3 698 171.7 687.5 128.8C677 86 640 43 621.5 21.5L603 0L900 0L900 21.5C900 43 900 86 900 128.8C900 171.7 900 214.3 900 257.2C900 300 900 343 900 385.8C900 428.7 900 471.3 900 514.2C900 557 900 600 900 642.8C900 685.7 900 728.3 900 771.2C900 814 900 857 900 878.5L900 900Z" fill="#333d29"></path><path d="M691 900L693.3 878.5C695.7 857 700.3 814 706.2 771.2C712 728.3 719 685.7 724.3 642.8C729.7 600 733.3 557 739.5 514.2C745.7 471.3 754.3 428.7 748.2 385.8C742 343 721 300 712.2 257.2C703.3 214.3 706.7 171.7 705.3 128.8C704 86 698 43 695 21.5L692 0L900 0L900 21.5C900 43 900 86 900 128.8C900 171.7 900 214.3 900 257.2C900 300 900 343 900 385.8C900 428.7 900 471.3 900 514.2C900 557 900 600 900 642.8C900 685.7 900 728.3 900 771.2C900 814 900 857 900 878.5L900 900Z" fill="#2d3524"></path><path d="M835 900L827.5 878.5C820 857 805 814 795.5 771.2C786 728.3 782 685.7 780 642.8C778 600 778 557 786.8 514.2C795.7 471.3 813.3 428.7 818.3 385.8C823.3 343 815.7 300 809.3 257.2C803 214.3 798 171.7 800.7 128.8C803.3 86 813.7 43 818.8 21.5L824 0L900 0L900 21.5C900 43 900 86 900 128.8C900 171.7 900 214.3 900 257.2C900 300 900 343 900 385.8C900 428.7 900 471.3 900 514.2C900 557 900 600 900 642.8C900 685.7 900 728.3 900 771.2C900 814 900 857 900 878.5L900 900Z" fill="#272d1f"></path></svg>